<mxfile host="app.diagrams.net" modified="2021-09-06T07:48:18.068Z" agent="5.0 (Windows NT 10.0; Win64; x64) AppleWebKit/537.36 (KHTML, like Gecko) Chrome/84.0.4147.89 Safari/537.36" etag="t87eZOFy_CKG-ni_qS5Q" version="15.0.6" type="github">
  <diagram id="Vpc6QiJXpO27XoKMxClo" name="Page-1">
    <mxGraphModel dx="1422" dy="762" grid="1" gridSize="10" guides="1" tooltips="1" connect="1" arrows="1" fold="1" page="1" pageScale="1" pageWidth="850" pageHeight="1100" math="0" shadow="0">
      <root>
        <mxCell id="0" />
        <mxCell id="1" parent="0" />
        <mxCell id="JNGhzmpwAELZEjtYFD7T-1" value="Alfresco Folder Structure" style="text;html=1;align=center;verticalAlign=middle;resizable=0;points=[];autosize=1;strokeColor=none;" parent="1" vertex="1">
          <mxGeometry x="980" y="120" width="150" height="20" as="geometry" />
        </mxCell>
        <mxCell id="JNGhzmpwAELZEjtYFD7T-2" style="edgeStyle=orthogonalEdgeStyle;rounded=0;orthogonalLoop=1;jettySize=auto;html=1;exitX=0.5;exitY=1;exitDx=0;exitDy=0;entryX=0;entryY=0.5;entryDx=0;entryDy=0;startArrow=none;startFill=0;endArrow=classic;endFill=1;" parent="1" source="JNGhzmpwAELZEjtYFD7T-4" target="JNGhzmpwAELZEjtYFD7T-5" edge="1">
          <mxGeometry relative="1" as="geometry" />
        </mxCell>
        <mxCell id="JNGhzmpwAELZEjtYFD7T-3" style="edgeStyle=orthogonalEdgeStyle;rounded=0;orthogonalLoop=1;jettySize=auto;html=1;exitX=0.5;exitY=1;exitDx=0;exitDy=0;entryX=0;entryY=0.5;entryDx=0;entryDy=0;startArrow=none;startFill=0;endArrow=classic;endFill=1;" parent="1" source="JNGhzmpwAELZEjtYFD7T-4" target="JNGhzmpwAELZEjtYFD7T-6" edge="1">
          <mxGeometry relative="1" as="geometry" />
        </mxCell>
        <mxCell id="JNGhzmpwAELZEjtYFD7T-15" style="edgeStyle=orthogonalEdgeStyle;rounded=0;orthogonalLoop=1;jettySize=auto;html=1;exitX=0.5;exitY=1;exitDx=0;exitDy=0;entryX=0;entryY=0.5;entryDx=0;entryDy=0;" parent="1" source="JNGhzmpwAELZEjtYFD7T-4" target="JNGhzmpwAELZEjtYFD7T-14" edge="1">
          <mxGeometry relative="1" as="geometry" />
        </mxCell>
        <mxCell id="Kn9K0cfjVidj4RRrooVR-5" style="edgeStyle=orthogonalEdgeStyle;rounded=0;orthogonalLoop=1;jettySize=auto;html=1;exitX=0.5;exitY=1;exitDx=0;exitDy=0;entryX=0;entryY=0.5;entryDx=0;entryDy=0;" parent="1" source="JNGhzmpwAELZEjtYFD7T-4" target="Kn9K0cfjVidj4RRrooVR-1" edge="1">
          <mxGeometry relative="1" as="geometry" />
        </mxCell>
        <mxCell id="JNGhzmpwAELZEjtYFD7T-4" value="CUSTOMER_RUNNING_ID" style="rounded=0;whiteSpace=wrap;html=1;" parent="1" vertex="1">
          <mxGeometry x="980" y="160" width="200" height="40" as="geometry" />
        </mxCell>
        <mxCell id="JNGhzmpwAELZEjtYFD7T-5" value="FACILITY" style="rounded=0;whiteSpace=wrap;html=1;" parent="1" vertex="1">
          <mxGeometry x="1140" y="460" width="200" height="40" as="geometry" />
        </mxCell>
        <mxCell id="Kn9K0cfjVidj4RRrooVR-7" style="edgeStyle=orthogonalEdgeStyle;rounded=0;orthogonalLoop=1;jettySize=auto;html=1;exitX=0.25;exitY=1;exitDx=0;exitDy=0;entryX=0;entryY=0.5;entryDx=0;entryDy=0;" parent="1" source="JNGhzmpwAELZEjtYFD7T-6" target="Kn9K0cfjVidj4RRrooVR-6" edge="1">
          <mxGeometry relative="1" as="geometry" />
        </mxCell>
        <mxCell id="Kn9K0cfjVidj4RRrooVR-10" style="edgeStyle=orthogonalEdgeStyle;rounded=0;orthogonalLoop=1;jettySize=auto;html=1;exitX=0.25;exitY=1;exitDx=0;exitDy=0;entryX=0;entryY=0.5;entryDx=0;entryDy=0;" parent="1" source="JNGhzmpwAELZEjtYFD7T-6" target="Kn9K0cfjVidj4RRrooVR-8" edge="1">
          <mxGeometry relative="1" as="geometry" />
        </mxCell>
        <mxCell id="Kn9K0cfjVidj4RRrooVR-11" style="edgeStyle=orthogonalEdgeStyle;rounded=0;orthogonalLoop=1;jettySize=auto;html=1;exitX=0.25;exitY=1;exitDx=0;exitDy=0;entryX=0;entryY=0.5;entryDx=0;entryDy=0;" parent="1" source="JNGhzmpwAELZEjtYFD7T-6" target="Kn9K0cfjVidj4RRrooVR-9" edge="1">
          <mxGeometry relative="1" as="geometry" />
        </mxCell>
        <mxCell id="JNGhzmpwAELZEjtYFD7T-6" value="SERVICE_REQUEST" style="rounded=0;whiteSpace=wrap;html=1;" parent="1" vertex="1">
          <mxGeometry x="1140" y="580" width="200" height="40" as="geometry" />
        </mxCell>
        <mxCell id="JNGhzmpwAELZEjtYFD7T-7" value="customer_id&lt;br&gt;srNo&lt;br&gt;type&lt;br&gt;refNo&lt;br&gt;fileName&lt;br&gt;uuid&lt;br&gt;attachmentType" style="rounded=0;whiteSpace=wrap;html=1;" parent="1" vertex="1">
          <mxGeometry x="740" y="610" width="150" height="150" as="geometry" />
        </mxCell>
        <mxCell id="JNGhzmpwAELZEjtYFD7T-8" value="" style="shape=note;whiteSpace=wrap;html=1;backgroundOutline=1;darkOpacity=0.05;size=11;" parent="1" vertex="1">
          <mxGeometry x="1530" y="740" width="30" height="40" as="geometry" />
        </mxCell>
        <mxCell id="JNGhzmpwAELZEjtYFD7T-9" value="" style="shape=note;whiteSpace=wrap;html=1;backgroundOutline=1;darkOpacity=0.05;size=11;" parent="1" vertex="1">
          <mxGeometry x="1570" y="740" width="30" height="40" as="geometry" />
        </mxCell>
        <mxCell id="JNGhzmpwAELZEjtYFD7T-10" value="" style="shape=note;whiteSpace=wrap;html=1;backgroundOutline=1;darkOpacity=0.05;size=11;" parent="1" vertex="1">
          <mxGeometry x="1610" y="740" width="30" height="40" as="geometry" />
        </mxCell>
        <mxCell id="JNGhzmpwAELZEjtYFD7T-11" value="" style="shape=note;whiteSpace=wrap;html=1;backgroundOutline=1;darkOpacity=0.05;size=11;" parent="1" vertex="1">
          <mxGeometry x="1140" y="520" width="30" height="40" as="geometry" />
        </mxCell>
        <mxCell id="JNGhzmpwAELZEjtYFD7T-12" value="" style="shape=note;whiteSpace=wrap;html=1;backgroundOutline=1;darkOpacity=0.05;size=11;" parent="1" vertex="1">
          <mxGeometry x="1220" y="520" width="30" height="40" as="geometry" />
        </mxCell>
        <mxCell id="JNGhzmpwAELZEjtYFD7T-13" value="" style="shape=note;whiteSpace=wrap;html=1;backgroundOutline=1;darkOpacity=0.05;size=11;" parent="1" vertex="1">
          <mxGeometry x="1180" y="520" width="30" height="40" as="geometry" />
        </mxCell>
        <mxCell id="JNGhzmpwAELZEjtYFD7T-14" value="CUSTOMER_DOC" style="rounded=0;whiteSpace=wrap;html=1;" parent="1" vertex="1">
          <mxGeometry x="1140" y="220" width="200" height="40" as="geometry" />
        </mxCell>
        <mxCell id="JNGhzmpwAELZEjtYFD7T-16" value="" style="shape=note;whiteSpace=wrap;html=1;backgroundOutline=1;darkOpacity=0.05;size=11;" parent="1" vertex="1">
          <mxGeometry x="1140" y="280" width="30" height="40" as="geometry" />
        </mxCell>
        <mxCell id="JNGhzmpwAELZEjtYFD7T-17" value="" style="shape=note;whiteSpace=wrap;html=1;backgroundOutline=1;darkOpacity=0.05;size=11;" parent="1" vertex="1">
          <mxGeometry x="1220" y="280" width="30" height="40" as="geometry" />
        </mxCell>
        <mxCell id="JNGhzmpwAELZEjtYFD7T-18" value="" style="shape=note;whiteSpace=wrap;html=1;backgroundOutline=1;darkOpacity=0.05;size=11;" parent="1" vertex="1">
          <mxGeometry x="1180" y="280" width="30" height="40" as="geometry" />
        </mxCell>
        <mxCell id="JNGhzmpwAELZEjtYFD7T-19" value="/100180367" style="text;html=1;align=center;verticalAlign=middle;resizable=0;points=[];autosize=1;strokeColor=none;" parent="1" vertex="1">
          <mxGeometry x="1440" y="170" width="80" height="20" as="geometry" />
        </mxCell>
        <mxCell id="JNGhzmpwAELZEjtYFD7T-20" value="/100180367/CUSTOMER_DOC/" style="text;html=1;align=center;verticalAlign=middle;resizable=0;points=[];autosize=1;strokeColor=none;" parent="1" vertex="1">
          <mxGeometry x="1440" y="230" width="190" height="20" as="geometry" />
        </mxCell>
        <mxCell id="JNGhzmpwAELZEjtYFD7T-21" value="100180367/FACILITY/22233306" style="text;html=1;align=center;verticalAlign=middle;resizable=0;points=[];autosize=1;strokeColor=none;" parent="1" vertex="1">
          <mxGeometry x="1440" y="350" width="190" height="20" as="geometry" />
        </mxCell>
        <mxCell id="Kn9K0cfjVidj4RRrooVR-1" value="COSTOMER_COMPLY_DOC" style="rounded=0;whiteSpace=wrap;html=1;" parent="1" vertex="1">
          <mxGeometry x="1140" y="340" width="200" height="40" as="geometry" />
        </mxCell>
        <mxCell id="Kn9K0cfjVidj4RRrooVR-2" value="" style="shape=note;whiteSpace=wrap;html=1;backgroundOutline=1;darkOpacity=0.05;size=11;" parent="1" vertex="1">
          <mxGeometry x="1140" y="400" width="30" height="40" as="geometry" />
        </mxCell>
        <mxCell id="Kn9K0cfjVidj4RRrooVR-3" value="" style="shape=note;whiteSpace=wrap;html=1;backgroundOutline=1;darkOpacity=0.05;size=11;" parent="1" vertex="1">
          <mxGeometry x="1220" y="400" width="30" height="40" as="geometry" />
        </mxCell>
        <mxCell id="Kn9K0cfjVidj4RRrooVR-4" value="" style="shape=note;whiteSpace=wrap;html=1;backgroundOutline=1;darkOpacity=0.05;size=11;" parent="1" vertex="1">
          <mxGeometry x="1180" y="400" width="30" height="40" as="geometry" />
        </mxCell>
        <mxCell id="Kn9K0cfjVidj4RRrooVR-6" value="[SERVICE REQUEST]" style="rounded=0;whiteSpace=wrap;html=1;" parent="1" vertex="1">
          <mxGeometry x="1240" y="640" width="200" height="40" as="geometry" />
        </mxCell>
        <mxCell id="Kn9K0cfjVidj4RRrooVR-8" value="[SERVICE REQUEST]" style="rounded=0;whiteSpace=wrap;html=1;" parent="1" vertex="1">
          <mxGeometry x="1240" y="690" width="200" height="40" as="geometry" />
        </mxCell>
        <mxCell id="Kn9K0cfjVidj4RRrooVR-9" value="[SERVICE REQUEST]" style="rounded=0;whiteSpace=wrap;html=1;" parent="1" vertex="1">
          <mxGeometry x="1240" y="740" width="200" height="40" as="geometry" />
        </mxCell>
        <mxCell id="ZQxsP_-PPY-bOw5nZUSr-3" style="edgeStyle=orthogonalEdgeStyle;rounded=0;orthogonalLoop=1;jettySize=auto;html=1;entryX=0;entryY=0.5;entryDx=0;entryDy=0;" parent="1" source="ZQxsP_-PPY-bOw5nZUSr-1" target="ZQxsP_-PPY-bOw5nZUSr-2" edge="1">
          <mxGeometry relative="1" as="geometry" />
        </mxCell>
        <mxCell id="ZQxsP_-PPY-bOw5nZUSr-1" value="SERVICE_REQUEST_NONE_CUST" style="rounded=0;whiteSpace=wrap;html=1;" parent="1" vertex="1">
          <mxGeometry x="970" y="830" width="200" height="40" as="geometry" />
        </mxCell>
        <mxCell id="ZQxsP_-PPY-bOw5nZUSr-2" value="[SERVICE REQUEST ID]" style="rounded=0;whiteSpace=wrap;html=1;" parent="1" vertex="1">
          <mxGeometry x="1120" y="940" width="200" height="40" as="geometry" />
        </mxCell>
      </root>
    </mxGraphModel>
  </diagram>
</mxfile>
